<svg width="1725" height="1111" viewBox="0 0 1725 1111" fill="none" xmlns="http://www.w3.org/2000/svg">
<rect width="1725" height="1111" fill="#D9D9D9"/>
<ellipse cx="863.304" cy="608.515" rx="380.014" ry="324.642" fill="#F8F5F5"/>
<g filter="url(#filter0_d_2709_2)">
<circle cx="570.289" cy="390.838" r="125" fill="black"/>
<path d="M498.787 410.864V389.448H501.277V410.864H498.787ZM523.909 410.864H521.038L509.363 392.876H509.246C509.275 393.354 509.31 393.901 509.349 394.517C509.388 395.122 509.417 395.771 509.437 396.465C509.466 397.148 509.48 397.847 509.48 398.56V410.864H507.166V389.448H510.022L521.653 407.378H521.756C521.736 407.036 521.712 406.553 521.683 405.928C521.653 405.293 521.624 404.614 521.595 403.892C521.575 403.159 521.565 402.48 521.565 401.855V389.448H523.909V410.864ZM536.331 410.864H533.826V391.646H527.088V389.448H543.04V391.646H536.331V410.864ZM558.201 410.864H546.277V389.448H558.201V391.646H548.768V398.574H557.659V400.742H548.768V408.667H558.201V410.864ZM572.103 399.644H579.588V410.029C578.465 410.41 577.308 410.693 576.116 410.879C574.935 411.064 573.611 411.157 572.146 411.157C569.92 411.157 568.04 410.713 566.507 409.824C564.983 408.936 563.826 407.671 563.035 406.03C562.244 404.38 561.849 402.422 561.849 400.156C561.849 397.939 562.283 396.006 563.152 394.355C564.031 392.705 565.296 391.426 566.946 390.518C568.606 389.6 570.599 389.141 572.923 389.141C574.114 389.141 575.242 389.253 576.307 389.478C577.381 389.692 578.377 390 579.295 390.4L578.343 392.568C577.552 392.227 576.678 391.934 575.721 391.689C574.773 391.445 573.792 391.323 572.776 391.323C571.028 391.323 569.529 391.685 568.279 392.407C567.039 393.13 566.087 394.15 565.423 395.469C564.769 396.787 564.441 398.35 564.441 400.156C564.441 401.943 564.729 403.501 565.306 404.829C565.882 406.147 566.78 407.173 568.001 407.905C569.222 408.638 570.794 409.004 572.718 409.004C573.685 409.004 574.515 408.95 575.208 408.843C575.901 408.726 576.531 408.589 577.098 408.433V401.87H572.103V399.644ZM590.56 389.448C592.317 389.448 593.768 389.668 594.91 390.107C596.062 390.537 596.922 391.196 597.488 392.085C598.055 392.974 598.338 394.106 598.338 395.483C598.338 396.616 598.133 397.563 597.723 398.325C597.312 399.077 596.775 399.688 596.111 400.156C595.447 400.625 594.739 400.986 593.987 401.24L599.861 410.864H596.961L591.717 401.929H587.264V410.864H584.773V389.448H590.56ZM590.413 391.602H587.264V399.819H590.662C592.41 399.819 593.694 399.463 594.515 398.75C595.345 398.037 595.76 396.987 595.76 395.601C595.76 394.146 595.32 393.115 594.441 392.51C593.572 391.904 592.229 391.602 590.413 391.602ZM603.289 410.864V389.448H605.779V410.864H603.289ZM618.245 410.864H615.74V391.646H609.002V389.448H624.954V391.646H618.245V410.864ZM633.655 400.186L639.354 389.448H642.034L634.9 402.559V410.864H632.41V402.676L625.262 389.448H627.986L633.655 400.186Z" fill="white"/>
</g>
<g filter="url(#filter1_d_2709_2)">
<circle cx="1040.66" cy="390.838" r="125" fill="black"/>
<path d="M963.851 403.302C963.851 404.571 963.533 405.655 962.899 406.554C962.274 407.442 961.395 408.121 960.262 408.59C959.129 409.059 957.796 409.293 956.263 409.293C955.452 409.293 954.686 409.254 953.963 409.176C953.24 409.098 952.576 408.985 951.971 408.839C951.365 408.692 950.833 408.512 950.374 408.297V405.909C951.107 406.212 952 406.495 953.055 406.759C954.11 407.013 955.213 407.14 956.365 407.14C957.44 407.14 958.348 406.998 959.09 406.715C959.832 406.422 960.394 406.007 960.775 405.47C961.165 404.923 961.361 404.269 961.361 403.507C961.361 402.774 961.199 402.164 960.877 401.676C960.555 401.178 960.018 400.729 959.266 400.328C958.524 399.918 957.508 399.483 956.219 399.024C955.311 398.702 954.51 398.351 953.817 397.97C953.123 397.579 952.542 397.14 952.073 396.651C951.605 396.163 951.248 395.597 951.004 394.952C950.77 394.308 950.653 393.57 950.653 392.74C950.653 391.598 950.941 390.621 951.517 389.811C952.103 388.99 952.908 388.365 953.934 387.936C954.969 387.496 956.156 387.276 957.493 387.276C958.636 387.276 959.691 387.384 960.657 387.599C961.634 387.813 962.528 388.102 963.338 388.463L962.562 390.602C961.79 390.279 960.97 390.011 960.101 389.796C959.241 389.581 958.353 389.474 957.435 389.474C956.517 389.474 955.74 389.61 955.106 389.884C954.481 390.147 954.002 390.523 953.67 391.012C953.338 391.5 953.172 392.081 953.172 392.755C953.172 393.507 953.328 394.132 953.641 394.63C953.963 395.128 954.471 395.572 955.164 395.963C955.867 396.344 956.795 396.744 957.948 397.164C959.207 397.623 960.277 398.111 961.156 398.629C962.034 399.137 962.703 399.762 963.162 400.504C963.621 401.236 963.851 402.169 963.851 403.302ZM984.432 387.584V401.441C984.432 402.955 984.124 404.303 983.509 405.484C982.904 406.666 981.986 407.599 980.755 408.282C979.525 408.956 977.982 409.293 976.126 409.293C973.48 409.293 971.463 408.575 970.076 407.14C968.699 405.704 968.011 403.785 968.011 401.383V387.584H970.516V401.456C970.516 403.272 970.994 404.674 971.951 405.66C972.918 406.646 974.359 407.14 976.273 407.14C977.581 407.14 978.651 406.905 979.481 406.437C980.321 405.958 980.941 405.294 981.341 404.444C981.751 403.585 981.956 402.594 981.956 401.471V387.584H984.432ZM1002.2 403.302C1002.2 404.571 1001.88 405.655 1001.25 406.554C1000.62 407.442 999.744 408.121 998.612 408.59C997.479 409.059 996.146 409.293 994.613 409.293C993.802 409.293 993.035 409.254 992.313 409.176C991.59 409.098 990.926 408.985 990.321 408.839C989.715 408.692 989.183 408.512 988.724 408.297V405.909C989.456 406.212 990.35 406.495 991.405 406.759C992.459 407.013 993.563 407.14 994.715 407.14C995.789 407.14 996.698 406.998 997.44 406.715C998.182 406.422 998.743 406.007 999.124 405.47C999.515 404.923 999.71 404.269 999.71 403.507C999.71 402.774 999.549 402.164 999.227 401.676C998.905 401.178 998.367 400.729 997.615 400.328C996.873 399.918 995.858 399.483 994.569 399.024C993.66 398.702 992.86 398.351 992.166 397.97C991.473 397.579 990.892 397.14 990.423 396.651C989.954 396.163 989.598 395.597 989.354 394.952C989.119 394.308 989.002 393.57 989.002 392.74C989.002 391.598 989.29 390.621 989.866 389.811C990.452 388.99 991.258 388.365 992.283 387.936C993.319 387.496 994.505 387.276 995.843 387.276C996.986 387.276 998.04 387.384 999.007 387.599C999.984 387.813 1000.88 388.102 1001.69 388.463L1000.91 390.602C1000.14 390.279 999.32 390.011 998.45 389.796C997.591 389.581 996.702 389.474 995.784 389.474C994.866 389.474 994.09 389.61 993.455 389.884C992.83 390.147 992.352 390.523 992.02 391.012C991.688 391.5 991.522 392.081 991.522 392.755C991.522 393.507 991.678 394.132 991.99 394.63C992.313 395.128 992.821 395.572 993.514 395.963C994.217 396.344 995.145 396.744 996.297 397.164C997.557 397.623 998.626 398.111 999.505 398.629C1000.38 399.137 1001.05 399.762 1001.51 400.504C1001.97 401.236 1002.2 402.169 1002.2 403.302ZM1013.16 409H1010.65V389.781H1003.91V387.584H1019.87V389.781H1013.16V409ZM1036.54 409L1033.9 402.203H1025.32L1022.69 409H1020.17L1028.55 387.496H1030.79L1039.11 409H1036.54ZM1033.15 399.991L1030.65 393.238C1030.59 393.062 1030.49 392.774 1030.35 392.374C1030.23 391.974 1030.1 391.559 1029.96 391.129C1029.82 390.699 1029.71 390.353 1029.62 390.089C1029.52 390.489 1029.42 390.89 1029.3 391.29C1029.19 391.681 1029.09 392.047 1028.98 392.389C1028.87 392.721 1028.78 393.004 1028.7 393.238L1026.15 399.991H1033.15ZM1042.09 409V387.584H1044.58V409H1042.09ZM1067.21 409H1064.34L1052.66 391.012H1052.55C1052.58 391.49 1052.61 392.037 1052.65 392.652C1052.69 393.258 1052.72 393.907 1052.74 394.601C1052.77 395.284 1052.78 395.982 1052.78 396.695V409H1050.47V387.584H1053.32L1064.95 405.514H1065.06C1065.04 405.172 1065.01 404.688 1064.98 404.063C1064.95 403.429 1064.93 402.75 1064.9 402.027C1064.88 401.295 1064.87 400.616 1064.87 399.991V387.584H1067.21V409ZM1086.49 409L1083.85 402.203H1075.27L1072.64 409H1070.13L1078.5 387.496H1080.75L1089.07 409H1086.49ZM1083.1 399.991L1080.6 393.238C1080.54 393.062 1080.44 392.774 1080.31 392.374C1080.18 391.974 1080.05 391.559 1079.91 391.129C1079.77 390.699 1079.66 390.353 1079.57 390.089C1079.48 390.489 1079.37 390.89 1079.25 391.29C1079.14 391.681 1079.04 392.047 1078.93 392.389C1078.82 392.721 1078.73 393.004 1078.65 393.238L1076.1 399.991H1083.1ZM1092.04 387.584H1098.1C1100.78 387.584 1102.79 387.984 1104.14 388.785C1105.49 389.586 1106.16 390.948 1106.16 392.872C1106.16 393.702 1106 394.449 1105.68 395.113C1105.36 395.768 1104.91 396.31 1104.3 396.739C1103.69 397.169 1102.95 397.467 1102.06 397.633V397.779C1103 397.926 1103.83 398.194 1104.55 398.585C1105.27 398.976 1105.84 399.522 1106.25 400.226C1106.66 400.929 1106.86 401.822 1106.86 402.906C1106.86 404.225 1106.56 405.338 1105.94 406.246C1105.34 407.154 1104.48 407.843 1103.36 408.312C1102.25 408.771 1100.93 409 1099.41 409H1092.04V387.584ZM1094.53 396.769H1098.63C1100.5 396.769 1101.79 396.461 1102.5 395.846C1103.22 395.23 1103.58 394.332 1103.58 393.15C1103.58 391.93 1103.15 391.051 1102.29 390.514C1101.44 389.977 1100.09 389.708 1098.22 389.708H1094.53V396.769ZM1094.53 398.863V406.876H1098.98C1100.89 406.876 1102.23 406.505 1103.03 405.763C1103.82 405.011 1104.21 404 1104.21 402.73C1104.21 401.92 1104.03 401.227 1103.67 400.65C1103.32 400.074 1102.74 399.635 1101.94 399.332C1101.15 399.02 1100.09 398.863 1098.76 398.863H1094.53ZM1111.43 409V387.584H1113.92V406.773H1123.43V409H1111.43ZM1139.03 409H1127.11V387.584H1139.03V389.781H1129.6V396.71H1138.49V398.878H1129.6V406.803H1139.03V409Z" fill="white"/>
</g>
<g filter="url(#filter2_d_2709_2)">
<circle cx="638.692" cy="859.765" r="125" fill="black"/>
<path d="M547.921 855.474C546.74 855.474 545.675 855.679 544.728 856.089C543.79 856.489 542.99 857.075 542.325 857.847C541.671 858.608 541.168 859.531 540.817 860.615C540.465 861.699 540.289 862.92 540.289 864.277C540.289 866.074 540.568 867.637 541.124 868.965C541.691 870.283 542.531 871.304 543.644 872.026C544.767 872.749 546.168 873.11 547.848 873.11C548.805 873.11 549.703 873.032 550.543 872.876C551.393 872.71 552.218 872.505 553.019 872.261V874.429C552.238 874.722 551.417 874.937 550.558 875.073C549.698 875.22 548.678 875.293 547.496 875.293C545.319 875.293 543.497 874.844 542.032 873.945C540.577 873.037 539.484 871.758 538.751 870.107C538.029 868.457 537.667 866.509 537.667 864.263C537.667 862.642 537.892 861.162 538.341 859.824C538.8 858.477 539.464 857.314 540.333 856.338C541.212 855.361 542.286 854.609 543.556 854.082C544.835 853.545 546.3 853.276 547.95 853.276C549.034 853.276 550.079 853.384 551.085 853.599C552.091 853.813 552.999 854.121 553.81 854.521L552.814 856.631C552.13 856.318 551.378 856.05 550.558 855.825C549.747 855.591 548.868 855.474 547.921 855.474ZM576.237 864.263C576.237 865.913 576.027 867.417 575.607 868.774C575.187 870.122 574.562 871.284 573.732 872.261C572.911 873.228 571.891 873.975 570.67 874.502C569.449 875.029 568.033 875.293 566.422 875.293C564.762 875.293 563.312 875.029 562.072 874.502C560.841 873.975 559.816 873.223 558.995 872.246C558.185 871.27 557.574 870.103 557.164 868.745C556.764 867.388 556.564 865.884 556.564 864.233C556.564 862.046 556.925 860.127 557.648 858.477C558.37 856.826 559.464 855.542 560.929 854.624C562.404 853.706 564.249 853.247 566.466 853.247C568.585 853.247 570.367 853.701 571.813 854.609C573.268 855.518 574.366 856.797 575.109 858.447C575.861 860.088 576.237 862.026 576.237 864.263ZM559.186 864.263C559.186 866.079 559.445 867.651 559.962 868.979C560.48 870.308 561.271 871.333 562.335 872.056C563.409 872.778 564.772 873.14 566.422 873.14C568.082 873.14 569.44 872.778 570.494 872.056C571.559 871.333 572.345 870.308 572.853 868.979C573.361 867.651 573.615 866.079 573.615 864.263C573.615 861.499 573.033 859.341 571.871 857.788C570.719 856.226 568.917 855.444 566.466 855.444C564.806 855.444 563.439 855.801 562.365 856.514C561.29 857.227 560.49 858.242 559.962 859.561C559.445 860.869 559.186 862.437 559.186 864.263ZM590.431 875L583.239 856.045H583.121C583.16 856.445 583.195 856.934 583.224 857.51C583.253 858.086 583.278 858.716 583.297 859.399C583.317 860.073 583.326 860.762 583.326 861.465V875H581.012V853.584H584.703L591.486 871.396H591.588L598.473 853.584H602.135V875H599.674V861.289C599.674 860.654 599.684 860.02 599.703 859.385C599.723 858.74 599.747 858.135 599.777 857.568C599.806 856.992 599.835 856.494 599.865 856.074H599.747L592.467 875H590.431ZM617.413 875L610.221 856.045H610.104C610.143 856.445 610.177 856.934 610.206 857.51C610.236 858.086 610.26 858.716 610.28 859.399C610.299 860.073 610.309 860.762 610.309 861.465V875H607.994V853.584H611.686L618.468 871.396H618.571L625.455 853.584H629.117V875H626.656V861.289C626.656 860.654 626.666 860.02 626.686 859.385C626.705 858.74 626.73 858.135 626.759 857.568C626.788 856.992 626.818 856.494 626.847 856.074H626.73L619.449 875H617.413ZM634.977 875V853.584H637.467V875H634.977ZM649.933 875H647.428V855.781H640.69V853.584H656.642V855.781H649.933V875ZM669.298 875L662.106 856.045H661.989C662.028 856.445 662.062 856.934 662.091 857.51C662.12 858.086 662.145 858.716 662.164 859.399C662.184 860.073 662.194 860.762 662.194 861.465V875H659.879V853.584H663.571L670.353 871.396H670.455L677.34 853.584H681.002V875H678.541V861.289C678.541 860.654 678.551 860.02 678.571 859.385C678.59 858.74 678.615 858.135 678.644 857.568C678.673 856.992 678.702 856.494 678.732 856.074H678.615L671.334 875H669.298ZM698.785 875H686.862V853.584H698.785V855.781H689.352V862.71H698.243V864.878H689.352V872.803H698.785V875ZM720.275 875H717.404L705.729 857.012H705.612C705.641 857.49 705.675 858.037 705.714 858.652C705.753 859.258 705.782 859.907 705.802 860.601C705.831 861.284 705.846 861.982 705.846 862.695V875H703.531V853.584H706.388L718.019 871.514H718.121C718.102 871.172 718.077 870.688 718.048 870.063C718.019 869.429 717.99 868.75 717.96 868.027C717.941 867.295 717.931 866.616 717.931 865.991V853.584H720.275V875ZM732.697 875H730.192V855.781H723.453V853.584H739.406V855.781H732.697V875Z" fill="white"/>
</g>
<g filter="url(#filter3_d_2709_2)">
<circle cx="1240.12" cy="586.372" r="50" fill="black"/>
</g>
<g filter="url(#filter4_d_2709_2)">
<circle cx="1082.84" cy="896" r="125" fill="#D9D9D9"/>
</g>
<g filter="url(#filter5_d_2709_2)">
<ellipse cx="780.705" cy="360.48" rx="26.3377" ry="22.5" fill="#D9D9D9"/>
</g>
<g filter="url(#filter6_d_2709_2)">
<circle cx="458.5" cy="522.801" r="22.5" fill="#D9D9D9"/>
</g>
<g filter="url(#filter7_d_2709_2)">
<circle cx="600.949" cy="614.944" r="42.5" fill="#D9D9D9"/>
</g>
<g filter="url(#filter8_d_2709_2)">
<circle cx="1232.62" cy="741.193" r="42.5" fill="#D9D9D9"/>
</g>
<g filter="url(#filter9_d_2709_2)">
<circle cx="846.432" cy="607.266" r="125" fill="black"/>
<path d="M768.766 627V605.584H771.256V627H768.766ZM793.888 627H791.017L779.342 609.012H779.225C779.254 609.49 779.288 610.037 779.327 610.653C779.366 611.258 779.396 611.907 779.415 612.601C779.445 613.284 779.459 613.983 779.459 614.696V627H777.145V605.584H780.001L791.632 623.514H791.735C791.715 623.172 791.691 622.689 791.661 622.064C791.632 621.429 791.603 620.75 791.573 620.028C791.554 619.295 791.544 618.616 791.544 617.991V605.584H793.888V627ZM816.476 627H813.605L801.93 609.012H801.813C801.842 609.49 801.876 610.037 801.915 610.653C801.954 611.258 801.984 611.907 802.003 612.601C802.032 613.284 802.047 613.983 802.047 614.696V627H799.733V605.584H802.589L814.22 623.514H814.323C814.303 623.172 814.279 622.689 814.249 622.064C814.22 621.429 814.191 620.75 814.161 620.028C814.142 619.295 814.132 618.616 814.132 617.991V605.584H816.476V627ZM840.895 616.263C840.895 617.913 840.685 619.417 840.265 620.775C839.845 622.122 839.22 623.284 838.39 624.261C837.57 625.228 836.549 625.975 835.328 626.502C834.108 627.03 832.692 627.293 831.08 627.293C829.42 627.293 827.97 627.03 826.73 626.502C825.499 625.975 824.474 625.223 823.654 624.246C822.843 623.27 822.233 622.103 821.823 620.745C821.422 619.388 821.222 617.884 821.222 616.234C821.222 614.046 821.583 612.127 822.306 610.477C823.029 608.826 824.122 607.542 825.587 606.624C827.062 605.706 828.907 605.247 831.124 605.247C833.243 605.247 835.026 605.701 836.471 606.61C837.926 607.518 839.025 608.797 839.767 610.448C840.519 612.088 840.895 614.027 840.895 616.263ZM823.844 616.263C823.844 618.079 824.103 619.652 824.62 620.98C825.138 622.308 825.929 623.333 826.993 624.056C828.068 624.779 829.43 625.14 831.08 625.14C832.74 625.14 834.098 624.779 835.153 624.056C836.217 623.333 837.003 622.308 837.511 620.98C838.019 619.652 838.273 618.079 838.273 616.263C838.273 613.499 837.692 611.341 836.53 609.788C835.377 608.226 833.575 607.445 831.124 607.445C829.464 607.445 828.097 607.801 827.023 608.514C825.948 609.227 825.148 610.242 824.62 611.561C824.103 612.869 823.844 614.437 823.844 616.263ZM860.626 605.584L852.936 627H850.431L842.74 605.584H845.348L850.358 619.691C850.563 620.257 850.743 620.799 850.9 621.317C851.066 621.834 851.212 622.332 851.339 622.811C851.466 623.289 851.578 623.753 851.676 624.202C851.774 623.753 851.886 623.289 852.013 622.811C852.14 622.323 852.286 621.82 852.452 621.302C852.618 620.775 852.804 620.223 853.009 619.647L857.99 605.584H860.626ZM877.003 627L874.366 620.203H865.782L863.16 627H860.641L869.02 605.496H871.261L879.581 627H877.003ZM873.619 617.991L871.115 611.239C871.056 611.063 870.958 610.775 870.822 610.374C870.695 609.974 870.563 609.559 870.426 609.129C870.289 608.699 870.177 608.353 870.089 608.089C869.991 608.49 869.884 608.89 869.767 609.29C869.659 609.681 869.552 610.047 869.445 610.389C869.337 610.721 869.244 611.004 869.166 611.239L866.617 617.991H873.619ZM889.132 627H886.627V607.781H879.889V605.584H895.841V607.781H889.132V627ZM899.078 627V605.584H901.569V627H899.078ZM922.413 605.584L914.723 627H912.218L904.528 605.584H907.135L912.145 619.691C912.35 620.257 912.531 620.799 912.687 621.317C912.853 621.834 912.999 622.332 913.126 622.811C913.253 623.289 913.365 623.753 913.463 624.202C913.561 623.753 913.673 623.289 913.8 622.811C913.927 622.323 914.073 621.82 914.24 621.302C914.406 620.775 914.591 620.223 914.796 619.647L919.777 605.584H922.413ZM937.281 627H925.358V605.584H937.281V607.781H927.848V614.71H936.74V616.878H927.848V624.803H937.281V627Z" fill="white"/>
</g>
<g filter="url(#filter10_d_2709_2)">
<circle cx="326.423" cy="275.547" r="60" fill="black"/>
</g>
<g filter="url(#filter11_d_2709_2)">
<circle cx="390" cy="687" r="60" fill="black"/>
</g>
<g filter="url(#filter12_d_2709_2)">
<circle cx="362" cy="900.839" r="115" fill="#D9D9D9"/>
<path d="M324.93 913V891.584H327.42V910.773H336.927V913H324.93ZM352.527 913H340.604V891.584H352.527V893.781H343.094V900.71H351.985V902.878H343.094V910.803H352.527V913ZM370.706 913L368.069 906.203H359.485L356.863 913H354.344L362.723 891.496H364.964L373.284 913H370.706ZM367.322 903.991L364.817 897.238C364.759 897.062 364.661 896.774 364.524 896.374C364.397 895.974 364.266 895.559 364.129 895.129C363.992 894.699 363.88 894.353 363.792 894.089C363.694 894.489 363.587 894.89 363.47 895.29C363.362 895.681 363.255 896.047 363.147 896.389C363.04 896.721 362.947 897.004 362.869 897.238L360.32 903.991H367.322ZM393.001 913H390.13L378.455 895.012H378.338C378.367 895.49 378.401 896.037 378.44 896.652C378.479 897.258 378.509 897.907 378.528 898.601C378.558 899.284 378.572 899.982 378.572 900.695V913H376.258V891.584H379.114L390.745 909.514H390.848C390.828 909.172 390.804 908.688 390.774 908.063C390.745 907.429 390.716 906.75 390.687 906.027C390.667 905.295 390.657 904.616 390.657 903.991V891.584H393.001V913Z" fill="white"/>
</g>
<g filter="url(#filter13_d_2709_2)">
<circle cx="1418.33" cy="276.686" r="60" fill="#D9D9D9"/>
</g>
<path d="M1018.51 914H1016V894.781H1009.26V892.584H1025.22V894.781H1018.51V914ZM1040.38 914H1028.45V892.584H1040.38V894.781H1030.94V901.71H1039.83V903.878H1030.94V911.803H1040.38V914ZM1058.56 914L1055.92 907.203H1047.33L1044.71 914H1042.19L1050.57 892.496H1052.81L1061.13 914H1058.56ZM1055.17 904.991L1052.67 898.238C1052.61 898.062 1052.51 897.774 1052.37 897.374C1052.25 896.974 1052.12 896.559 1051.98 896.129C1051.84 895.699 1051.73 895.353 1051.64 895.089C1051.54 895.489 1051.44 895.89 1051.32 896.29C1051.21 896.681 1051.1 897.047 1051 897.389C1050.89 897.721 1050.8 898.004 1050.72 898.238L1048.17 904.991H1055.17ZM1073.53 914L1066.33 895.045H1066.22C1066.26 895.445 1066.29 895.934 1066.32 896.51C1066.35 897.086 1066.37 897.716 1066.39 898.399C1066.41 899.073 1066.42 899.762 1066.42 900.465V914H1064.11V892.584H1067.8L1074.58 910.396H1074.68L1081.57 892.584H1085.23V914H1082.77V900.289C1082.77 899.654 1082.78 899.02 1082.8 898.385C1082.82 897.74 1082.84 897.135 1082.87 896.568C1082.9 895.992 1082.93 895.494 1082.96 895.074H1082.84L1075.56 914H1073.53ZM1115.42 892.584L1109.69 914H1107.19L1102.94 899.586C1102.81 899.176 1102.69 898.766 1102.57 898.355C1102.47 897.936 1102.36 897.54 1102.27 897.169C1102.17 896.788 1102.09 896.456 1102.02 896.173C1101.96 895.88 1101.92 895.66 1101.89 895.514C1101.87 895.66 1101.83 895.875 1101.77 896.158C1101.72 896.441 1101.65 896.769 1101.56 897.14C1101.49 897.511 1101.39 897.906 1101.27 898.326C1101.16 898.746 1101.05 899.171 1100.92 899.601L1096.79 914H1094.28L1088.6 892.584H1091.19L1094.63 906.017C1094.75 906.466 1094.86 906.91 1094.96 907.35C1095.06 907.779 1095.16 908.199 1095.24 908.609C1095.32 909.02 1095.4 909.42 1095.47 909.811C1095.54 910.201 1095.6 910.582 1095.66 910.953C1095.71 910.572 1095.77 910.177 1095.85 909.767C1095.93 909.347 1096.01 908.922 1096.1 908.492C1096.2 908.062 1096.3 907.628 1096.41 907.188C1096.52 906.749 1096.65 906.31 1096.77 905.87L1100.63 892.584H1103.19L1107.2 905.973C1107.34 906.432 1107.47 906.886 1107.58 907.335C1107.7 907.784 1107.8 908.224 1107.89 908.653C1107.99 909.073 1108.07 909.479 1108.14 909.869C1108.22 910.25 1108.29 910.611 1108.35 910.953C1108.41 910.475 1108.5 909.972 1108.59 909.444C1108.69 908.917 1108.8 908.365 1108.93 907.789C1109.07 907.213 1109.21 906.617 1109.37 906.002L1112.81 892.584H1115.42ZM1137.38 903.263C1137.38 904.913 1137.17 906.417 1136.75 907.774C1136.33 909.122 1135.7 910.284 1134.87 911.261C1134.05 912.228 1133.03 912.975 1131.81 913.502C1130.59 914.029 1129.18 914.293 1127.56 914.293C1125.9 914.293 1124.45 914.029 1123.21 913.502C1121.98 912.975 1120.96 912.223 1120.14 911.246C1119.33 910.27 1118.72 909.103 1118.31 907.745C1117.91 906.388 1117.71 904.884 1117.71 903.233C1117.71 901.046 1118.07 899.127 1118.79 897.477C1119.51 895.826 1120.61 894.542 1122.07 893.624C1123.55 892.706 1125.39 892.247 1127.61 892.247C1129.73 892.247 1131.51 892.701 1132.96 893.609C1134.41 894.518 1135.51 895.797 1136.25 897.447C1137 899.088 1137.38 901.026 1137.38 903.263ZM1120.33 903.263C1120.33 905.079 1120.59 906.651 1121.1 907.979C1121.62 909.308 1122.41 910.333 1123.48 911.056C1124.55 911.778 1125.91 912.14 1127.56 912.14C1129.22 912.14 1130.58 911.778 1131.64 911.056C1132.7 910.333 1133.49 909.308 1134 907.979C1134.5 906.651 1134.76 905.079 1134.76 903.263C1134.76 900.499 1134.18 898.341 1133.01 896.788C1131.86 895.226 1130.06 894.444 1127.61 894.444C1125.95 894.444 1124.58 894.801 1123.51 895.514C1122.43 896.227 1121.63 897.242 1121.1 898.561C1120.59 899.869 1120.33 901.437 1120.33 903.263ZM1147.94 892.584C1149.7 892.584 1151.15 892.804 1152.29 893.243C1153.44 893.673 1154.3 894.332 1154.87 895.221C1155.44 896.109 1155.72 897.242 1155.72 898.619C1155.72 899.752 1155.51 900.699 1155.1 901.461C1154.69 902.213 1154.16 902.823 1153.49 903.292C1152.83 903.761 1152.12 904.122 1151.37 904.376L1157.24 914H1154.34L1149.1 905.064H1144.64V914H1142.15V892.584H1147.94ZM1147.79 894.737H1144.64V902.955H1148.04C1149.79 902.955 1151.08 902.599 1151.9 901.886C1152.73 901.173 1153.14 900.123 1153.14 898.736C1153.14 897.281 1152.7 896.251 1151.82 895.646C1150.95 895.04 1149.61 894.737 1147.79 894.737ZM1176.11 914H1173.17L1165.45 903.585L1163.16 905.636V914H1160.67V892.584H1163.16V903.263C1163.72 902.628 1164.29 901.998 1164.87 901.373C1165.46 900.738 1166.04 900.099 1166.62 899.454L1172.87 892.584H1175.79L1167.26 901.871L1176.11 914Z" fill="white"/>
<g filter="url(#filter14_d_2709_2)">
<circle cx="1440" cy="877" r="60" fill="black"/>
</g>
<defs>
<filter id="filter0_d_2709_2" x="437.289" y="260.838" width="268" height="268" filterUnits="userSpaceOnUse" color-interpolation-filters="sRGB">
<feFlood flood-opacity="0" result="BackgroundImageFix"/>
<feColorMatrix in="SourceAlpha" type="matrix" values="0 0 0 0 0 0 0 0 0 0 0 0 0 0 0 0 0 0 127 0" result="hardAlpha"/>
<feOffset dx="1" dy="4"/>
<feGaussianBlur stdDeviation="4.5"/>
<feComposite in2="hardAlpha" operator="out"/>
<feColorMatrix type="matrix" values="0 0 0 0 0 0 0 0 0 0 0 0 0 0 0 0 0 0 1 0"/>
<feBlend mode="normal" in2="BackgroundImageFix" result="effect1_dropShadow_2709_2"/>
<feBlend mode="normal" in="SourceGraphic" in2="effect1_dropShadow_2709_2" result="shape"/>
</filter>
<filter id="filter1_d_2709_2" x="907.662" y="260.838" width="268" height="268" filterUnits="userSpaceOnUse" color-interpolation-filters="sRGB">
<feFlood flood-opacity="0" result="BackgroundImageFix"/>
<feColorMatrix in="SourceAlpha" type="matrix" values="0 0 0 0 0 0 0 0 0 0 0 0 0 0 0 0 0 0 127 0" result="hardAlpha"/>
<feOffset dx="1" dy="4"/>
<feGaussianBlur stdDeviation="4.5"/>
<feComposite in2="hardAlpha" operator="out"/>
<feColorMatrix type="matrix" values="0 0 0 0 0 0 0 0 0 0 0 0 0 0 0 0 0 0 1 0"/>
<feBlend mode="normal" in2="BackgroundImageFix" result="effect1_dropShadow_2709_2"/>
<feBlend mode="normal" in="SourceGraphic" in2="effect1_dropShadow_2709_2" result="shape"/>
</filter>
<filter id="filter2_d_2709_2" x="505.692" y="729.765" width="268" height="268" filterUnits="userSpaceOnUse" color-interpolation-filters="sRGB">
<feFlood flood-opacity="0" result="BackgroundImageFix"/>
<feColorMatrix in="SourceAlpha" type="matrix" values="0 0 0 0 0 0 0 0 0 0 0 0 0 0 0 0 0 0 127 0" result="hardAlpha"/>
<feOffset dx="1" dy="4"/>
<feGaussianBlur stdDeviation="4.5"/>
<feComposite in2="hardAlpha" operator="out"/>
<feColorMatrix type="matrix" values="0 0 0 0 0 0 0 0 0 0 0 0 0 0 0 0 0 0 1 0"/>
<feBlend mode="normal" in2="BackgroundImageFix" result="effect1_dropShadow_2709_2"/>
<feBlend mode="normal" in="SourceGraphic" in2="effect1_dropShadow_2709_2" result="shape"/>
</filter>
<filter id="filter3_d_2709_2" x="1182.12" y="531.372" width="118" height="118" filterUnits="userSpaceOnUse" color-interpolation-filters="sRGB">
<feFlood flood-opacity="0" result="BackgroundImageFix"/>
<feColorMatrix in="SourceAlpha" type="matrix" values="0 0 0 0 0 0 0 0 0 0 0 0 0 0 0 0 0 0 127 0" result="hardAlpha"/>
<feOffset dx="1" dy="4"/>
<feGaussianBlur stdDeviation="4.5"/>
<feComposite in2="hardAlpha" operator="out"/>
<feColorMatrix type="matrix" values="0 0 0 0 0 0 0 0 0 0 0 0 0 0 0 0 0 0 1 0"/>
<feBlend mode="normal" in2="BackgroundImageFix" result="effect1_dropShadow_2709_2"/>
<feBlend mode="normal" in="SourceGraphic" in2="effect1_dropShadow_2709_2" result="shape"/>
</filter>
<filter id="filter4_d_2709_2" x="949.836" y="766" width="268" height="268" filterUnits="userSpaceOnUse" color-interpolation-filters="sRGB">
<feFlood flood-opacity="0" result="BackgroundImageFix"/>
<feColorMatrix in="SourceAlpha" type="matrix" values="0 0 0 0 0 0 0 0 0 0 0 0 0 0 0 0 0 0 127 0" result="hardAlpha"/>
<feOffset dx="1" dy="4"/>
<feGaussianBlur stdDeviation="4.5"/>
<feComposite in2="hardAlpha" operator="out"/>
<feColorMatrix type="matrix" values="0 0 0 0 0 0 0 0 0 0 0 0 0 0 0 0 0 0 1 0"/>
<feBlend mode="normal" in2="BackgroundImageFix" result="effect1_dropShadow_2709_2"/>
<feBlend mode="normal" in="SourceGraphic" in2="effect1_dropShadow_2709_2" result="shape"/>
</filter>
<filter id="filter5_d_2709_2" x="746.367" y="332.98" width="70.6753" height="63" filterUnits="userSpaceOnUse" color-interpolation-filters="sRGB">
<feFlood flood-opacity="0" result="BackgroundImageFix"/>
<feColorMatrix in="SourceAlpha" type="matrix" values="0 0 0 0 0 0 0 0 0 0 0 0 0 0 0 0 0 0 127 0" result="hardAlpha"/>
<feOffset dx="1" dy="4"/>
<feGaussianBlur stdDeviation="4.5"/>
<feComposite in2="hardAlpha" operator="out"/>
<feColorMatrix type="matrix" values="0 0 0 0 0 0 0 0 0 0 0 0 0 0 0 0 0 0 1 0"/>
<feBlend mode="normal" in2="BackgroundImageFix" result="effect1_dropShadow_2709_2"/>
<feBlend mode="normal" in="SourceGraphic" in2="effect1_dropShadow_2709_2" result="shape"/>
</filter>
<filter id="filter6_d_2709_2" x="428" y="495.301" width="63" height="63" filterUnits="userSpaceOnUse" color-interpolation-filters="sRGB">
<feFlood flood-opacity="0" result="BackgroundImageFix"/>
<feColorMatrix in="SourceAlpha" type="matrix" values="0 0 0 0 0 0 0 0 0 0 0 0 0 0 0 0 0 0 127 0" result="hardAlpha"/>
<feOffset dx="1" dy="4"/>
<feGaussianBlur stdDeviation="4.5"/>
<feComposite in2="hardAlpha" operator="out"/>
<feColorMatrix type="matrix" values="0 0 0 0 0 0 0 0 0 0 0 0 0 0 0 0 0 0 1 0"/>
<feBlend mode="normal" in2="BackgroundImageFix" result="effect1_dropShadow_2709_2"/>
<feBlend mode="normal" in="SourceGraphic" in2="effect1_dropShadow_2709_2" result="shape"/>
</filter>
<filter id="filter7_d_2709_2" x="550.449" y="567.444" width="103" height="103" filterUnits="userSpaceOnUse" color-interpolation-filters="sRGB">
<feFlood flood-opacity="0" result="BackgroundImageFix"/>
<feColorMatrix in="SourceAlpha" type="matrix" values="0 0 0 0 0 0 0 0 0 0 0 0 0 0 0 0 0 0 127 0" result="hardAlpha"/>
<feOffset dx="1" dy="4"/>
<feGaussianBlur stdDeviation="4.5"/>
<feComposite in2="hardAlpha" operator="out"/>
<feColorMatrix type="matrix" values="0 0 0 0 0 0 0 0 0 0 0 0 0 0 0 0 0 0 1 0"/>
<feBlend mode="normal" in2="BackgroundImageFix" result="effect1_dropShadow_2709_2"/>
<feBlend mode="normal" in="SourceGraphic" in2="effect1_dropShadow_2709_2" result="shape"/>
</filter>
<filter id="filter8_d_2709_2" x="1182.12" y="693.693" width="103" height="103" filterUnits="userSpaceOnUse" color-interpolation-filters="sRGB">
<feFlood flood-opacity="0" result="BackgroundImageFix"/>
<feColorMatrix in="SourceAlpha" type="matrix" values="0 0 0 0 0 0 0 0 0 0 0 0 0 0 0 0 0 0 127 0" result="hardAlpha"/>
<feOffset dx="1" dy="4"/>
<feGaussianBlur stdDeviation="4.5"/>
<feComposite in2="hardAlpha" operator="out"/>
<feColorMatrix type="matrix" values="0 0 0 0 0 0 0 0 0 0 0 0 0 0 0 0 0 0 1 0"/>
<feBlend mode="normal" in2="BackgroundImageFix" result="effect1_dropShadow_2709_2"/>
<feBlend mode="normal" in="SourceGraphic" in2="effect1_dropShadow_2709_2" result="shape"/>
</filter>
<filter id="filter9_d_2709_2" x="713.432" y="477.266" width="268" height="268" filterUnits="userSpaceOnUse" color-interpolation-filters="sRGB">
<feFlood flood-opacity="0" result="BackgroundImageFix"/>
<feColorMatrix in="SourceAlpha" type="matrix" values="0 0 0 0 0 0 0 0 0 0 0 0 0 0 0 0 0 0 127 0" result="hardAlpha"/>
<feOffset dx="1" dy="4"/>
<feGaussianBlur stdDeviation="4.5"/>
<feComposite in2="hardAlpha" operator="out"/>
<feColorMatrix type="matrix" values="0 0 0 0 0 0 0 0 0 0 0 0 0 0 0 0 0 0 1 0"/>
<feBlend mode="normal" in2="BackgroundImageFix" result="effect1_dropShadow_2709_2"/>
<feBlend mode="normal" in="SourceGraphic" in2="effect1_dropShadow_2709_2" result="shape"/>
</filter>
<filter id="filter10_d_2709_2" x="258.423" y="210.547" width="138" height="138" filterUnits="userSpaceOnUse" color-interpolation-filters="sRGB">
<feFlood flood-opacity="0" result="BackgroundImageFix"/>
<feColorMatrix in="SourceAlpha" type="matrix" values="0 0 0 0 0 0 0 0 0 0 0 0 0 0 0 0 0 0 127 0" result="hardAlpha"/>
<feOffset dx="1" dy="4"/>
<feGaussianBlur stdDeviation="4.5"/>
<feComposite in2="hardAlpha" operator="out"/>
<feColorMatrix type="matrix" values="0 0 0 0 0 0 0 0 0 0 0 0 0 0 0 0 0 0 1 0"/>
<feBlend mode="normal" in2="BackgroundImageFix" result="effect1_dropShadow_2709_2"/>
<feBlend mode="normal" in="SourceGraphic" in2="effect1_dropShadow_2709_2" result="shape"/>
</filter>
<filter id="filter11_d_2709_2" x="322" y="622" width="138" height="138" filterUnits="userSpaceOnUse" color-interpolation-filters="sRGB">
<feFlood flood-opacity="0" result="BackgroundImageFix"/>
<feColorMatrix in="SourceAlpha" type="matrix" values="0 0 0 0 0 0 0 0 0 0 0 0 0 0 0 0 0 0 127 0" result="hardAlpha"/>
<feOffset dx="1" dy="4"/>
<feGaussianBlur stdDeviation="4.5"/>
<feComposite in2="hardAlpha" operator="out"/>
<feColorMatrix type="matrix" values="0 0 0 0 0 0 0 0 0 0 0 0 0 0 0 0 0 0 1 0"/>
<feBlend mode="normal" in2="BackgroundImageFix" result="effect1_dropShadow_2709_2"/>
<feBlend mode="normal" in="SourceGraphic" in2="effect1_dropShadow_2709_2" result="shape"/>
</filter>
<filter id="filter12_d_2709_2" x="239" y="780.839" width="248" height="248" filterUnits="userSpaceOnUse" color-interpolation-filters="sRGB">
<feFlood flood-opacity="0" result="BackgroundImageFix"/>
<feColorMatrix in="SourceAlpha" type="matrix" values="0 0 0 0 0 0 0 0 0 0 0 0 0 0 0 0 0 0 127 0" result="hardAlpha"/>
<feOffset dx="1" dy="4"/>
<feGaussianBlur stdDeviation="4.5"/>
<feComposite in2="hardAlpha" operator="out"/>
<feColorMatrix type="matrix" values="0 0 0 0 0 0 0 0 0 0 0 0 0 0 0 0 0 0 1 0"/>
<feBlend mode="normal" in2="BackgroundImageFix" result="effect1_dropShadow_2709_2"/>
<feBlend mode="normal" in="SourceGraphic" in2="effect1_dropShadow_2709_2" result="shape"/>
</filter>
<filter id="filter13_d_2709_2" x="1350.33" y="211.686" width="138" height="138" filterUnits="userSpaceOnUse" color-interpolation-filters="sRGB">
<feFlood flood-opacity="0" result="BackgroundImageFix"/>
<feColorMatrix in="SourceAlpha" type="matrix" values="0 0 0 0 0 0 0 0 0 0 0 0 0 0 0 0 0 0 127 0" result="hardAlpha"/>
<feOffset dx="1" dy="4"/>
<feGaussianBlur stdDeviation="4.5"/>
<feComposite in2="hardAlpha" operator="out"/>
<feColorMatrix type="matrix" values="0 0 0 0 0 0 0 0 0 0 0 0 0 0 0 0 0 0 1 0"/>
<feBlend mode="normal" in2="BackgroundImageFix" result="effect1_dropShadow_2709_2"/>
<feBlend mode="normal" in="SourceGraphic" in2="effect1_dropShadow_2709_2" result="shape"/>
</filter>
<filter id="filter14_d_2709_2" x="1372" y="812" width="138" height="138" filterUnits="userSpaceOnUse" color-interpolation-filters="sRGB">
<feFlood flood-opacity="0" result="BackgroundImageFix"/>
<feColorMatrix in="SourceAlpha" type="matrix" values="0 0 0 0 0 0 0 0 0 0 0 0 0 0 0 0 0 0 127 0" result="hardAlpha"/>
<feOffset dx="1" dy="4"/>
<feGaussianBlur stdDeviation="4.5"/>
<feComposite in2="hardAlpha" operator="out"/>
<feColorMatrix type="matrix" values="0 0 0 0 0 0 0 0 0 0 0 0 0 0 0 0 0 0 1 0"/>
<feBlend mode="normal" in2="BackgroundImageFix" result="effect1_dropShadow_2709_2"/>
<feBlend mode="normal" in="SourceGraphic" in2="effect1_dropShadow_2709_2" result="shape"/>
</filter>
</defs>
</svg>
